<svg width="363" height="322" viewBox="0 0 363 322" fill="none" xmlns="http://www.w3.org/2000/svg">
<circle cx="4.5" cy="294.5" r="4.5" fill="#5A6ACF"/>
<path opacity="0.7" d="M22.928 296.296H19.436L18.836 298H17.408L20.396 289.648H21.98L24.968 298H23.528L22.928 296.296ZM22.544 295.18L21.188 291.304L19.82 295.18H22.544ZM29.5392 292.504H28.3152V298H26.9352V292.504H26.1552V291.388H26.9352V290.92C26.9352 290.16 27.1352 289.608 27.5352 289.264C27.9432 288.912 28.5792 288.736 29.4432 288.736V289.876C29.0272 289.876 28.7352 289.956 28.5672 290.116C28.3992 290.268 28.3152 290.536 28.3152 290.92V291.388H29.5392V292.504ZM32.8476 292.504V296.164C32.8476 296.412 32.9036 296.592 33.0156 296.704C33.1356 296.808 33.3356 296.86 33.6156 296.86H34.4556V298H33.3756C32.7596 298 32.2876 297.856 31.9596 297.568C31.6316 297.28 31.4676 296.812 31.4676 296.164V292.504H30.6876V291.388H31.4676V289.744H32.8476V291.388H34.4556V292.504H32.8476ZM42.2764 294.532C42.2764 294.78 42.2604 295.004 42.2284 295.204H37.1764C37.2164 295.732 37.4124 296.156 37.7644 296.476C38.1164 296.796 38.5484 296.956 39.0604 296.956C39.7964 296.956 40.3164 296.648 40.6204 296.032H42.0964C41.8964 296.64 41.5324 297.14 41.0044 297.532C40.4844 297.916 39.8364 298.108 39.0604 298.108C38.4284 298.108 37.8604 297.968 37.3564 297.688C36.8604 297.4 36.4684 297 36.1804 296.488C35.9004 295.968 35.7604 295.368 35.7604 294.688C35.7604 294.008 35.8964 293.412 36.1684 292.9C36.4484 292.38 36.8364 291.98 37.3324 291.7C37.8364 291.42 38.4124 291.28 39.0604 291.28C39.6844 291.28 40.2404 291.416 40.7284 291.688C41.2164 291.96 41.5964 292.344 41.8684 292.84C42.1404 293.328 42.2764 293.892 42.2764 294.532ZM40.8484 294.1C40.8404 293.596 40.6604 293.192 40.3084 292.888C39.9564 292.584 39.5204 292.432 39.0004 292.432C38.5284 292.432 38.1244 292.584 37.7884 292.888C37.4524 293.184 37.2524 293.588 37.1884 294.1H40.8484ZM45.4907 292.348C45.6907 292.012 45.9547 291.752 46.2827 291.568C46.6187 291.376 47.0147 291.28 47.4707 291.28V292.696H47.1227C46.5867 292.696 46.1787 292.832 45.8987 293.104C45.6267 293.376 45.4907 293.848 45.4907 294.52V298H44.1227V291.388H45.4907V292.348ZM52.5641 291.28C53.0841 291.28 53.5481 291.388 53.9561 291.604C54.3721 291.82 54.6961 292.14 54.9281 292.564C55.1601 292.988 55.2761 293.5 55.2761 294.1V298H53.9201V294.304C53.9201 293.712 53.7721 293.26 53.4761 292.948C53.1801 292.628 52.7761 292.468 52.2641 292.468C51.7521 292.468 51.3441 292.628 51.0401 292.948C50.7441 293.26 50.5961 293.712 50.5961 294.304V298H49.2281V291.388H50.5961V292.144C50.8201 291.872 51.1041 291.66 51.4481 291.508C51.8001 291.356 52.1721 291.28 52.5641 291.28ZM60.3891 298.108C59.7651 298.108 59.2011 297.968 58.6971 297.688C58.1931 297.4 57.7971 297 57.5091 296.488C57.2211 295.968 57.0771 295.368 57.0771 294.688C57.0771 294.016 57.2251 293.42 57.5211 292.9C57.8171 292.38 58.2211 291.98 58.7331 291.7C59.2451 291.42 59.8171 291.28 60.4491 291.28C61.0811 291.28 61.6531 291.42 62.1651 291.7C62.6771 291.98 63.0811 292.38 63.3771 292.9C63.6731 293.42 63.8211 294.016 63.8211 294.688C63.8211 295.36 63.6691 295.956 63.3651 296.476C63.0611 296.996 62.6451 297.4 62.1171 297.688C61.5971 297.968 61.0211 298.108 60.3891 298.108ZM60.3891 296.92C60.7411 296.92 61.0691 296.836 61.3731 296.668C61.6851 296.5 61.9371 296.248 62.1291 295.912C62.3211 295.576 62.4171 295.168 62.4171 294.688C62.4171 294.208 62.3251 293.804 62.1411 293.476C61.9571 293.14 61.7131 292.888 61.4091 292.72C61.1051 292.552 60.7771 292.468 60.4251 292.468C60.0731 292.468 59.7451 292.552 59.4411 292.72C59.1451 292.888 58.9091 293.14 58.7331 293.476C58.5571 293.804 58.4691 294.208 58.4691 294.688C58.4691 295.4 58.6491 295.952 59.0091 296.344C59.3771 296.728 59.8371 296.92 60.3891 296.92ZM68.5414 298.108C67.9174 298.108 67.3534 297.968 66.8494 297.688C66.3454 297.4 65.9494 297 65.6614 296.488C65.3734 295.968 65.2294 295.368 65.2294 294.688C65.2294 294.016 65.3774 293.42 65.6734 292.9C65.9694 292.38 66.3734 291.98 66.8854 291.7C67.3974 291.42 67.9694 291.28 68.6014 291.28C69.2334 291.28 69.8054 291.42 70.3174 291.7C70.8294 291.98 71.2334 292.38 71.5294 292.9C71.8254 293.42 71.9734 294.016 71.9734 294.688C71.9734 295.36 71.8214 295.956 71.5174 296.476C71.2134 296.996 70.7974 297.4 70.2694 297.688C69.7494 297.968 69.1734 298.108 68.5414 298.108ZM68.5414 296.92C68.8934 296.92 69.2214 296.836 69.5254 296.668C69.8374 296.5 70.0894 296.248 70.2814 295.912C70.4734 295.576 70.5694 295.168 70.5694 294.688C70.5694 294.208 70.4774 293.804 70.2934 293.476C70.1094 293.14 69.8654 292.888 69.5614 292.72C69.2574 292.552 68.9294 292.468 68.5774 292.468C68.2254 292.468 67.8974 292.552 67.5934 292.72C67.2974 292.888 67.0614 293.14 66.8854 293.476C66.7094 293.804 66.6214 294.208 66.6214 294.688C66.6214 295.4 66.8014 295.952 67.1614 296.344C67.5294 296.728 67.9894 296.92 68.5414 296.92ZM77.1618 291.28C77.6818 291.28 78.1458 291.388 78.5538 291.604C78.9698 291.82 79.2938 292.14 79.5258 292.564C79.7578 292.988 79.8738 293.5 79.8738 294.1V298H78.5178V294.304C78.5178 293.712 78.3698 293.26 78.0738 292.948C77.7778 292.628 77.3738 292.468 76.8618 292.468C76.3498 292.468 75.9418 292.628 75.6378 292.948C75.3418 293.26 75.1938 293.712 75.1938 294.304V298H73.8258V291.388H75.1938V292.144C75.4178 291.872 75.7018 291.66 76.0458 291.508C76.3978 291.356 76.7698 291.28 77.1618 291.28Z" fill="#121212"/>
<path opacity="0.7" d="M17.48 318.068V317.24L21.692 311.408H23V317.12H24.2V318.068H23V320H21.92V318.068H17.48ZM21.968 312.548L18.74 317.12H21.968V312.548ZM25.7909 315.572C25.7909 314.196 26.0149 313.124 26.4629 312.356C26.9109 311.58 27.6949 311.192 28.8149 311.192C29.9269 311.192 30.7069 311.58 31.1549 312.356C31.6029 313.124 31.8269 314.196 31.8269 315.572C31.8269 316.972 31.6029 318.06 31.1549 318.836C30.7069 319.612 29.9269 320 28.8149 320C27.6949 320 26.9109 319.612 26.4629 318.836C26.0149 318.06 25.7909 316.972 25.7909 315.572ZM30.7469 315.572C30.7469 314.876 30.6989 314.288 30.6029 313.808C30.5149 313.32 30.3269 312.928 30.0389 312.632C29.7589 312.336 29.3509 312.188 28.8149 312.188C28.2709 312.188 27.8549 312.336 27.5669 312.632C27.2869 312.928 27.0989 313.32 27.0029 313.808C26.9149 314.288 26.8709 314.876 26.8709 315.572C26.8709 316.292 26.9149 316.896 27.0029 317.384C27.0989 317.872 27.2869 318.264 27.5669 318.56C27.8549 318.856 28.2709 319.004 28.8149 319.004C29.3509 319.004 29.7589 318.856 30.0389 318.56C30.3269 318.264 30.5149 317.872 30.6029 317.384C30.6989 316.896 30.7469 316.292 30.7469 315.572ZM33.586 313.28C33.586 312.736 33.75 312.304 34.078 311.984C34.406 311.656 34.826 311.492 35.338 311.492C35.85 311.492 36.27 311.656 36.598 311.984C36.926 312.304 37.09 312.736 37.09 313.28C37.09 313.832 36.926 314.272 36.598 314.6C36.27 314.92 35.85 315.08 35.338 315.08C34.826 315.08 34.406 314.92 34.078 314.6C33.75 314.272 33.586 313.832 33.586 313.28ZM40.594 311.624L35.734 320H34.654L39.514 311.624H40.594ZM35.338 312.164C35.066 312.164 34.85 312.26 34.69 312.452C34.538 312.636 34.462 312.912 34.462 313.28C34.462 313.648 34.538 313.928 34.69 314.12C34.85 314.312 35.066 314.408 35.338 314.408C35.61 314.408 35.826 314.312 35.986 314.12C36.146 313.92 36.226 313.64 36.226 313.28C36.226 312.912 36.146 312.636 35.986 312.452C35.826 312.26 35.61 312.164 35.338 312.164ZM38.182 318.344C38.182 317.792 38.346 317.356 38.674 317.036C39.002 316.708 39.422 316.544 39.934 316.544C40.446 316.544 40.862 316.708 41.182 317.036C41.51 317.356 41.674 317.792 41.674 318.344C41.674 318.888 41.51 319.324 41.182 319.652C40.862 319.98 40.446 320.144 39.934 320.144C39.422 320.144 39.002 319.984 38.674 319.664C38.346 319.336 38.182 318.896 38.182 318.344ZM39.922 317.228C39.65 317.228 39.434 317.324 39.274 317.516C39.114 317.7 39.034 317.976 39.034 318.344C39.034 318.704 39.114 318.98 39.274 319.172C39.434 319.356 39.65 319.448 39.922 319.448C40.194 319.448 40.41 319.356 40.57 319.172C40.73 318.98 40.81 318.704 40.81 318.344C40.81 317.976 40.73 317.7 40.57 317.516C40.41 317.324 40.194 317.228 39.922 317.228Z" fill="#121212"/>
<circle cx="146.5" cy="294.5" r="4.5" fill="#8593ED"/>
<path opacity="0.7" d="M161.268 290.764V293.212H164.148V294.328H161.268V296.884H164.508V298H159.9V289.648H164.508V290.764H161.268ZM169.249 296.776L171.121 291.388H172.573L170.053 298H168.421L165.913 291.388H167.377L169.249 296.776ZM180.167 294.532C180.167 294.78 180.151 295.004 180.119 295.204H175.067C175.107 295.732 175.303 296.156 175.655 296.476C176.007 296.796 176.439 296.956 176.951 296.956C177.687 296.956 178.207 296.648 178.511 296.032H179.987C179.787 296.64 179.423 297.14 178.895 297.532C178.375 297.916 177.727 298.108 176.951 298.108C176.319 298.108 175.751 297.968 175.247 297.688C174.751 297.4 174.359 297 174.071 296.488C173.791 295.968 173.651 295.368 173.651 294.688C173.651 294.008 173.787 293.412 174.059 292.9C174.339 292.38 174.727 291.98 175.223 291.7C175.727 291.42 176.303 291.28 176.951 291.28C177.575 291.28 178.131 291.416 178.619 291.688C179.107 291.96 179.487 292.344 179.759 292.84C180.031 293.328 180.167 293.892 180.167 294.532ZM178.739 294.1C178.731 293.596 178.551 293.192 178.199 292.888C177.847 292.584 177.411 292.432 176.891 292.432C176.419 292.432 176.015 292.584 175.679 292.888C175.343 293.184 175.143 293.588 175.079 294.1H178.739ZM185.349 291.28C185.869 291.28 186.333 291.388 186.741 291.604C187.157 291.82 187.481 292.14 187.713 292.564C187.945 292.988 188.061 293.5 188.061 294.1V298H186.705V294.304C186.705 293.712 186.557 293.26 186.261 292.948C185.965 292.628 185.561 292.468 185.049 292.468C184.537 292.468 184.129 292.628 183.825 292.948C183.529 293.26 183.381 293.712 183.381 294.304V298H182.013V291.388H183.381V292.144C183.605 291.872 183.889 291.66 184.233 291.508C184.585 291.356 184.957 291.28 185.349 291.28ZM191.002 290.512C190.754 290.512 190.546 290.428 190.378 290.26C190.21 290.092 190.126 289.884 190.126 289.636C190.126 289.388 190.21 289.18 190.378 289.012C190.546 288.844 190.754 288.76 191.002 288.76C191.242 288.76 191.446 288.844 191.614 289.012C191.782 289.18 191.866 289.388 191.866 289.636C191.866 289.884 191.782 290.092 191.614 290.26C191.446 290.428 191.242 290.512 191.002 290.512ZM191.674 291.388V298H190.306V291.388H191.674ZM197.306 291.28C197.826 291.28 198.29 291.388 198.698 291.604C199.114 291.82 199.438 292.14 199.67 292.564C199.902 292.988 200.018 293.5 200.018 294.1V298H198.662V294.304C198.662 293.712 198.514 293.26 198.218 292.948C197.922 292.628 197.518 292.468 197.006 292.468C196.494 292.468 196.086 292.628 195.782 292.948C195.486 293.26 195.338 293.712 195.338 294.304V298H193.97V291.388H195.338V292.144C195.562 291.872 195.846 291.66 196.19 291.508C196.542 291.356 196.914 291.28 197.306 291.28ZM204.927 291.28C205.439 291.28 205.891 291.384 206.283 291.592C206.683 291.792 206.995 292.044 207.219 292.348V291.388H208.599V298.108C208.599 298.716 208.471 299.256 208.215 299.728C207.959 300.208 207.587 300.584 207.099 300.856C206.619 301.128 206.043 301.264 205.371 301.264C204.475 301.264 203.731 301.052 203.139 300.628C202.547 300.212 202.211 299.644 202.131 298.924H203.487C203.591 299.268 203.811 299.544 204.147 299.752C204.491 299.968 204.899 300.076 205.371 300.076C205.923 300.076 206.367 299.908 206.703 299.572C207.047 299.236 207.219 298.748 207.219 298.108V297.004C206.987 297.316 206.671 297.58 206.271 297.796C205.879 298.004 205.431 298.108 204.927 298.108C204.351 298.108 203.823 297.964 203.343 297.676C202.871 297.38 202.495 296.972 202.215 296.452C201.943 295.924 201.807 295.328 201.807 294.664C201.807 294 201.943 293.412 202.215 292.9C202.495 292.388 202.871 291.992 203.343 291.712C203.823 291.424 204.351 291.28 204.927 291.28ZM207.219 294.688C207.219 294.232 207.123 293.836 206.931 293.5C206.747 293.164 206.503 292.908 206.199 292.732C205.895 292.556 205.567 292.468 205.215 292.468C204.863 292.468 204.535 292.556 204.231 292.732C203.927 292.9 203.679 293.152 203.487 293.488C203.303 293.816 203.211 294.208 203.211 294.664C203.211 295.12 203.303 295.52 203.487 295.864C203.679 296.208 203.927 296.472 204.231 296.656C204.543 296.832 204.871 296.92 205.215 296.92C205.567 296.92 205.895 296.832 206.199 296.656C206.503 296.48 206.747 296.224 206.931 295.888C207.123 295.544 207.219 295.144 207.219 294.688Z" fill="#121212"/>
<path opacity="0.7" d="M159.72 313.508C159.776 312.772 160.06 312.196 160.572 311.78C161.084 311.364 161.748 311.156 162.564 311.156C163.108 311.156 163.576 311.256 163.968 311.456C164.368 311.648 164.668 311.912 164.868 312.248C165.076 312.584 165.18 312.964 165.18 313.388C165.18 313.884 165.036 314.312 164.748 314.672C164.468 315.032 164.1 315.264 163.644 315.368V315.428C164.164 315.556 164.576 315.808 164.88 316.184C165.184 316.56 165.336 317.052 165.336 317.66C165.336 318.116 165.232 318.528 165.024 318.896C164.816 319.256 164.504 319.54 164.088 319.748C163.672 319.956 163.172 320.06 162.588 320.06C161.74 320.06 161.044 319.84 160.5 319.4C159.956 318.952 159.652 318.32 159.588 317.504H160.644C160.7 317.984 160.896 318.376 161.232 318.68C161.568 318.984 162.016 319.136 162.576 319.136C163.136 319.136 163.56 318.992 163.848 318.704C164.144 318.408 164.292 318.028 164.292 317.564C164.292 316.964 164.092 316.532 163.692 316.268C163.292 316.004 162.688 315.872 161.88 315.872H161.604V314.96H161.892C162.628 314.952 163.184 314.832 163.56 314.6C163.936 314.36 164.124 313.992 164.124 313.496C164.124 313.072 163.984 312.732 163.704 312.476C163.432 312.22 163.04 312.092 162.528 312.092C162.032 312.092 161.632 312.22 161.328 312.476C161.024 312.732 160.844 313.076 160.788 313.508H159.72ZM167.178 319.124C168.194 318.308 168.99 317.64 169.566 317.12C170.142 316.592 170.626 316.044 171.018 315.476C171.418 314.9 171.618 314.336 171.618 313.784C171.618 313.264 171.49 312.856 171.234 312.56C170.986 312.256 170.582 312.104 170.022 312.104C169.478 312.104 169.054 312.276 168.75 312.62C168.454 312.956 168.294 313.408 168.27 313.976H167.214C167.246 313.08 167.518 312.388 168.03 311.9C168.542 311.412 169.202 311.168 170.01 311.168C170.834 311.168 171.486 311.396 171.966 311.852C172.454 312.308 172.698 312.936 172.698 313.736C172.698 314.4 172.498 315.048 172.098 315.68C171.706 316.304 171.258 316.856 170.754 317.336C170.25 317.808 169.606 318.36 168.822 318.992H172.95V319.904H167.178V319.124ZM174.473 313.28C174.473 312.736 174.637 312.304 174.965 311.984C175.293 311.656 175.713 311.492 176.225 311.492C176.737 311.492 177.157 311.656 177.485 311.984C177.813 312.304 177.977 312.736 177.977 313.28C177.977 313.832 177.813 314.272 177.485 314.6C177.157 314.92 176.737 315.08 176.225 315.08C175.713 315.08 175.293 314.92 174.965 314.6C174.637 314.272 174.473 313.832 174.473 313.28ZM181.481 311.624L176.621 320H175.541L180.401 311.624H181.481ZM176.225 312.164C175.953 312.164 175.737 312.26 175.577 312.452C175.425 312.636 175.349 312.912 175.349 313.28C175.349 313.648 175.425 313.928 175.577 314.12C175.737 314.312 175.953 314.408 176.225 314.408C176.497 314.408 176.713 314.312 176.873 314.12C177.033 313.92 177.113 313.64 177.113 313.28C177.113 312.912 177.033 312.636 176.873 312.452C176.713 312.26 176.497 312.164 176.225 312.164ZM179.069 318.344C179.069 317.792 179.233 317.356 179.561 317.036C179.889 316.708 180.309 316.544 180.821 316.544C181.333 316.544 181.749 316.708 182.069 317.036C182.397 317.356 182.561 317.792 182.561 318.344C182.561 318.888 182.397 319.324 182.069 319.652C181.749 319.98 181.333 320.144 180.821 320.144C180.309 320.144 179.889 319.984 179.561 319.664C179.233 319.336 179.069 318.896 179.069 318.344ZM180.809 317.228C180.537 317.228 180.321 317.324 180.161 317.516C180.001 317.7 179.921 317.976 179.921 318.344C179.921 318.704 180.001 318.98 180.161 319.172C180.321 319.356 180.537 319.448 180.809 319.448C181.081 319.448 181.297 319.356 181.457 319.172C181.617 318.98 181.697 318.704 181.697 318.344C181.697 317.976 181.617 317.7 181.457 317.516C181.297 317.324 181.081 317.228 180.809 317.228Z" fill="#121212"/>
<circle cx="285.5" cy="294.5" r="4.5" fill="#C7CEFF"/>
<path opacity="0.7" d="M307.684 289.66V298H306.316V292.288L303.772 298H302.824L300.268 292.288V298H298.9V289.66H300.376L303.304 296.2L306.22 289.66H307.684ZM312.85 298.108C312.226 298.108 311.662 297.968 311.158 297.688C310.654 297.4 310.258 297 309.97 296.488C309.682 295.968 309.538 295.368 309.538 294.688C309.538 294.016 309.686 293.42 309.982 292.9C310.278 292.38 310.682 291.98 311.194 291.7C311.706 291.42 312.278 291.28 312.91 291.28C313.542 291.28 314.114 291.42 314.626 291.7C315.138 291.98 315.542 292.38 315.838 292.9C316.134 293.42 316.282 294.016 316.282 294.688C316.282 295.36 316.13 295.956 315.826 296.476C315.522 296.996 315.106 297.4 314.578 297.688C314.058 297.968 313.482 298.108 312.85 298.108ZM312.85 296.92C313.202 296.92 313.53 296.836 313.834 296.668C314.146 296.5 314.398 296.248 314.59 295.912C314.782 295.576 314.878 295.168 314.878 294.688C314.878 294.208 314.786 293.804 314.602 293.476C314.418 293.14 314.174 292.888 313.87 292.72C313.566 292.552 313.238 292.468 312.886 292.468C312.534 292.468 312.206 292.552 311.902 292.72C311.606 292.888 311.37 293.14 311.194 293.476C311.018 293.804 310.93 294.208 310.93 294.688C310.93 295.4 311.11 295.952 311.47 296.344C311.838 296.728 312.298 296.92 312.85 296.92ZM319.502 292.348C319.702 292.012 319.966 291.752 320.294 291.568C320.63 291.376 321.026 291.28 321.482 291.28V292.696H321.134C320.598 292.696 320.19 292.832 319.91 293.104C319.638 293.376 319.502 293.848 319.502 294.52V298H318.134V291.388H319.502V292.348ZM326.576 291.28C327.096 291.28 327.56 291.388 327.968 291.604C328.384 291.82 328.708 292.14 328.94 292.564C329.172 292.988 329.288 293.5 329.288 294.1V298H327.932V294.304C327.932 293.712 327.784 293.26 327.488 292.948C327.192 292.628 326.788 292.468 326.276 292.468C325.764 292.468 325.356 292.628 325.052 292.948C324.756 293.26 324.608 293.712 324.608 294.304V298H323.24V291.388H324.608V292.144C324.832 291.872 325.116 291.66 325.46 291.508C325.812 291.356 326.184 291.28 326.576 291.28ZM332.229 290.512C331.981 290.512 331.773 290.428 331.605 290.26C331.437 290.092 331.353 289.884 331.353 289.636C331.353 289.388 331.437 289.18 331.605 289.012C331.773 288.844 331.981 288.76 332.229 288.76C332.469 288.76 332.673 288.844 332.841 289.012C333.009 289.18 333.093 289.388 333.093 289.636C333.093 289.884 333.009 290.092 332.841 290.26C332.673 290.428 332.469 290.512 332.229 290.512ZM332.901 291.388V298H331.533V291.388H332.901ZM338.533 291.28C339.053 291.28 339.517 291.388 339.925 291.604C340.341 291.82 340.665 292.14 340.897 292.564C341.129 292.988 341.245 293.5 341.245 294.1V298H339.889V294.304C339.889 293.712 339.741 293.26 339.445 292.948C339.149 292.628 338.745 292.468 338.233 292.468C337.721 292.468 337.313 292.628 337.009 292.948C336.713 293.26 336.565 293.712 336.565 294.304V298H335.197V291.388H336.565V292.144C336.789 291.872 337.073 291.66 337.417 291.508C337.769 291.356 338.141 291.28 338.533 291.28ZM346.154 291.28C346.666 291.28 347.118 291.384 347.51 291.592C347.91 291.792 348.222 292.044 348.446 292.348V291.388H349.826V298.108C349.826 298.716 349.698 299.256 349.442 299.728C349.186 300.208 348.814 300.584 348.326 300.856C347.846 301.128 347.27 301.264 346.598 301.264C345.702 301.264 344.958 301.052 344.366 300.628C343.774 300.212 343.438 299.644 343.358 298.924H344.714C344.818 299.268 345.038 299.544 345.374 299.752C345.718 299.968 346.126 300.076 346.598 300.076C347.15 300.076 347.594 299.908 347.93 299.572C348.274 299.236 348.446 298.748 348.446 298.108V297.004C348.214 297.316 347.898 297.58 347.498 297.796C347.106 298.004 346.658 298.108 346.154 298.108C345.578 298.108 345.05 297.964 344.57 297.676C344.098 297.38 343.722 296.972 343.442 296.452C343.17 295.924 343.034 295.328 343.034 294.664C343.034 294 343.17 293.412 343.442 292.9C343.722 292.388 344.098 291.992 344.57 291.712C345.05 291.424 345.578 291.28 346.154 291.28ZM348.446 294.688C348.446 294.232 348.35 293.836 348.158 293.5C347.974 293.164 347.73 292.908 347.426 292.732C347.122 292.556 346.794 292.468 346.442 292.468C346.09 292.468 345.762 292.556 345.458 292.732C345.154 292.9 344.906 293.152 344.714 293.488C344.53 293.816 344.438 294.208 344.438 294.664C344.438 295.12 344.53 295.52 344.714 295.864C344.906 296.208 345.154 296.472 345.458 296.656C345.77 296.832 346.098 296.92 346.442 296.92C346.794 296.92 347.122 296.832 347.426 296.656C347.73 296.48 347.974 296.224 348.158 295.888C348.35 295.544 348.446 295.144 348.446 294.688Z" fill="#121212"/>
<path opacity="0.7" d="M298.612 319.124C299.628 318.308 300.424 317.64 301 317.12C301.576 316.592 302.06 316.044 302.452 315.476C302.852 314.9 303.052 314.336 303.052 313.784C303.052 313.264 302.924 312.856 302.668 312.56C302.42 312.256 302.016 312.104 301.456 312.104C300.912 312.104 300.488 312.276 300.184 312.62C299.888 312.956 299.728 313.408 299.704 313.976H298.648C298.68 313.08 298.952 312.388 299.464 311.9C299.976 311.412 300.636 311.168 301.444 311.168C302.268 311.168 302.92 311.396 303.4 311.852C303.888 312.308 304.132 312.936 304.132 313.736C304.132 314.4 303.932 315.048 303.532 315.68C303.14 316.304 302.692 316.856 302.188 317.336C301.684 317.808 301.04 318.36 300.256 318.992H304.384V319.904H298.612V319.124ZM307.73 315.488C307.282 315.312 306.938 315.056 306.698 314.72C306.458 314.384 306.338 313.976 306.338 313.496C306.338 313.064 306.446 312.676 306.662 312.332C306.878 311.98 307.198 311.704 307.622 311.504C308.054 311.296 308.574 311.192 309.182 311.192C309.79 311.192 310.306 311.296 310.73 311.504C311.162 311.704 311.486 311.98 311.702 312.332C311.926 312.676 312.038 313.064 312.038 313.496C312.038 313.96 311.914 314.368 311.666 314.72C311.418 315.064 311.078 315.32 310.646 315.488C311.142 315.64 311.534 315.908 311.822 316.292C312.118 316.668 312.266 317.124 312.266 317.66C312.266 318.18 312.138 318.636 311.882 319.028C311.626 319.412 311.262 319.712 310.79 319.928C310.326 320.136 309.79 320.24 309.182 320.24C308.574 320.24 308.038 320.136 307.574 319.928C307.118 319.712 306.762 319.412 306.506 319.028C306.25 318.636 306.122 318.18 306.122 317.66C306.122 317.124 306.266 316.664 306.554 316.28C306.842 315.896 307.234 315.632 307.73 315.488ZM310.982 313.628C310.982 313.14 310.822 312.764 310.502 312.5C310.182 312.236 309.742 312.104 309.182 312.104C308.63 312.104 308.194 312.236 307.874 312.5C307.554 312.764 307.394 313.144 307.394 313.64C307.394 314.088 307.558 314.448 307.886 314.72C308.222 314.992 308.654 315.128 309.182 315.128C309.718 315.128 310.15 314.992 310.478 314.72C310.814 314.44 310.982 314.076 310.982 313.628ZM309.182 315.968C308.59 315.968 308.106 316.108 307.73 316.388C307.354 316.66 307.166 317.072 307.166 317.624C307.166 318.136 307.346 318.548 307.706 318.86C308.074 319.172 308.566 319.328 309.182 319.328C309.798 319.328 310.286 319.172 310.646 318.86C311.006 318.548 311.186 318.136 311.186 317.624C311.186 317.088 311.002 316.68 310.634 316.4C310.266 316.112 309.782 315.968 309.182 315.968ZM313.977 313.28C313.977 312.736 314.141 312.304 314.469 311.984C314.797 311.656 315.217 311.492 315.729 311.492C316.241 311.492 316.661 311.656 316.989 311.984C317.317 312.304 317.481 312.736 317.481 313.28C317.481 313.832 317.317 314.272 316.989 314.6C316.661 314.92 316.241 315.08 315.729 315.08C315.217 315.08 314.797 314.92 314.469 314.6C314.141 314.272 313.977 313.832 313.977 313.28ZM320.985 311.624L316.125 320H315.045L319.905 311.624H320.985ZM315.729 312.164C315.457 312.164 315.241 312.26 315.081 312.452C314.929 312.636 314.853 312.912 314.853 313.28C314.853 313.648 314.929 313.928 315.081 314.12C315.241 314.312 315.457 314.408 315.729 314.408C316.001 314.408 316.217 314.312 316.377 314.12C316.537 313.92 316.617 313.64 316.617 313.28C316.617 312.912 316.537 312.636 316.377 312.452C316.217 312.26 316.001 312.164 315.729 312.164ZM318.573 318.344C318.573 317.792 318.737 317.356 319.065 317.036C319.393 316.708 319.813 316.544 320.325 316.544C320.837 316.544 321.253 316.708 321.573 317.036C321.901 317.356 322.065 317.792 322.065 318.344C322.065 318.888 321.901 319.324 321.573 319.652C321.253 319.98 320.837 320.144 320.325 320.144C319.813 320.144 319.393 319.984 319.065 319.664C318.737 319.336 318.573 318.896 318.573 318.344ZM320.313 317.228C320.041 317.228 319.825 317.324 319.665 317.516C319.505 317.7 319.425 317.976 319.425 318.344C319.425 318.704 319.505 318.98 319.665 319.172C319.825 319.356 320.041 319.448 320.313 319.448C320.585 319.448 320.801 319.356 320.961 319.172C321.121 318.98 321.201 318.704 321.201 318.344C321.201 317.976 321.121 317.7 320.961 317.516C320.801 317.324 320.585 317.228 320.313 317.228Z" fill="#121212"/>
<circle cx="182" cy="163" r="62" stroke="#C7CEFF" stroke-width="24"/>
<path d="M182 101C216.242 101 244 128.758 244 163C244 197.242 216.242 225 182 225C154.386 225 130.988 206.947 122.966 182" stroke="#8593ED" stroke-width="24"/>
<path d="M182 101C216.242 101 244 128.758 244 163C244 183.284 234.259 201.293 219.2 212.605" stroke="#DEE1F4" stroke-width="36"/>
<path d="M182 101C216.242 101 244 128.758 244 163C244 183.284 234.259 201.293 219.2 212.605" stroke="#5A6ACF" stroke-width="24"/>
<path d="M198 60C198 56.6863 200.686 54 204 54L332 54C335.314 54 338 56.6863 338 60V151C338 154.314 335.314 157 332 157H248.588L244.515 161.694C243.917 162.383 242.847 162.383 242.249 161.694L238.176 157H204C200.686 157 198 154.314 198 151V60Z" fill="#37375C"/>
<path opacity="0.5" d="M214.456 95.32V94.324H216.712V103H215.608V95.32H214.456ZM220.16 97.636C220.376 97.26 220.696 96.948 221.12 96.7C221.552 96.444 222.052 96.316 222.62 96.316C223.204 96.316 223.732 96.456 224.204 96.736C224.684 97.016 225.06 97.412 225.332 97.924C225.604 98.428 225.74 99.016 225.74 99.688C225.74 100.352 225.604 100.944 225.332 101.464C225.06 101.984 224.684 102.388 224.204 102.676C223.732 102.964 223.204 103.108 222.62 103.108C222.06 103.108 221.564 102.984 221.132 102.736C220.708 102.48 220.384 102.164 220.16 101.788V106.12H219.068V96.424H220.16V97.636ZM224.624 99.688C224.624 99.192 224.524 98.76 224.324 98.392C224.124 98.024 223.852 97.744 223.508 97.552C223.172 97.36 222.8 97.264 222.392 97.264C221.992 97.264 221.62 97.364 221.276 97.564C220.94 97.756 220.668 98.04 220.46 98.416C220.26 98.784 220.16 99.212 220.16 99.7C220.16 100.196 220.26 100.632 220.46 101.008C220.668 101.376 220.94 101.66 221.276 101.86C221.62 102.052 221.992 102.148 222.392 102.148C222.8 102.148 223.172 102.052 223.508 101.86C223.852 101.66 224.124 101.376 224.324 101.008C224.524 100.632 224.624 100.192 224.624 99.688ZM235.385 96.304C235.897 96.304 236.353 96.412 236.753 96.628C237.153 96.836 237.469 97.152 237.701 97.576C237.933 98 238.049 98.516 238.049 99.124V103H236.969V99.28C236.969 98.624 236.805 98.124 236.477 97.78C236.157 97.428 235.721 97.252 235.169 97.252C234.601 97.252 234.149 97.436 233.813 97.804C233.477 98.164 233.309 98.688 233.309 99.376V103H232.229V99.28C232.229 98.624 232.065 98.124 231.737 97.78C231.417 97.428 230.981 97.252 230.429 97.252C229.861 97.252 229.409 97.436 229.073 97.804C228.737 98.164 228.569 98.688 228.569 99.376V103H227.477V96.424H228.569V97.372C228.785 97.028 229.073 96.764 229.433 96.58C229.801 96.396 230.205 96.304 230.645 96.304C231.197 96.304 231.685 96.428 232.109 96.676C232.533 96.924 232.849 97.288 233.057 97.768C233.241 97.304 233.545 96.944 233.969 96.688C234.393 96.432 234.865 96.304 235.385 96.304ZM248.2 98.14V99.064H243.412V98.14H248.2ZM253.604 101.068V100.24L257.816 94.408H259.124V100.12H260.324V101.068H259.124V103H258.044V101.068H253.604ZM258.092 95.548L254.864 100.12H258.092V95.548ZM262.987 97.636C263.203 97.26 263.523 96.948 263.947 96.7C264.379 96.444 264.879 96.316 265.447 96.316C266.031 96.316 266.559 96.456 267.031 96.736C267.511 97.016 267.887 97.412 268.159 97.924C268.431 98.428 268.567 99.016 268.567 99.688C268.567 100.352 268.431 100.944 268.159 101.464C267.887 101.984 267.511 102.388 267.031 102.676C266.559 102.964 266.031 103.108 265.447 103.108C264.887 103.108 264.391 102.984 263.959 102.736C263.535 102.48 263.211 102.164 262.987 101.788V106.12H261.895V96.424H262.987V97.636ZM267.451 99.688C267.451 99.192 267.351 98.76 267.151 98.392C266.951 98.024 266.679 97.744 266.335 97.552C265.999 97.36 265.627 97.264 265.219 97.264C264.819 97.264 264.447 97.364 264.103 97.564C263.767 97.756 263.495 98.04 263.287 98.416C263.087 98.784 262.987 99.212 262.987 99.7C262.987 100.196 263.087 100.632 263.287 101.008C263.495 101.376 263.767 101.66 264.103 101.86C264.447 102.052 264.819 102.148 265.219 102.148C265.627 102.148 265.999 102.052 266.335 101.86C266.679 101.66 266.951 101.376 267.151 101.008C267.351 100.632 267.451 100.192 267.451 99.688ZM278.212 96.304C278.724 96.304 279.18 96.412 279.58 96.628C279.98 96.836 280.296 97.152 280.528 97.576C280.76 98 280.876 98.516 280.876 99.124V103H279.796V99.28C279.796 98.624 279.632 98.124 279.304 97.78C278.984 97.428 278.548 97.252 277.996 97.252C277.428 97.252 276.976 97.436 276.64 97.804C276.304 98.164 276.136 98.688 276.136 99.376V103H275.056V99.28C275.056 98.624 274.892 98.124 274.564 97.78C274.244 97.428 273.808 97.252 273.256 97.252C272.688 97.252 272.236 97.436 271.9 97.804C271.564 98.164 271.396 98.688 271.396 99.376V103H270.304V96.424H271.396V97.372C271.612 97.028 271.9 96.764 272.26 96.58C272.628 96.396 273.032 96.304 273.472 96.304C274.024 96.304 274.512 96.428 274.936 96.676C275.36 96.924 275.676 97.288 275.884 97.768C276.068 97.304 276.372 96.944 276.796 96.688C277.22 96.432 277.692 96.304 278.212 96.304Z" fill="white"/>
<path d="M219.928 79.2962H216.436L215.836 81.0002H214.408L217.396 72.6482H218.98L221.968 81.0002H220.528L219.928 79.2962ZM219.544 78.1802L218.188 74.3042L216.82 78.1802H219.544ZM226.339 75.5042H225.115V81.0002H223.735V75.5042H222.955V74.3882H223.735V73.9202C223.735 73.1602 223.935 72.6082 224.335 72.2642C224.743 71.9122 225.379 71.7362 226.243 71.7362V72.8762C225.827 72.8762 225.535 72.9562 225.367 73.1162C225.199 73.2682 225.115 73.5362 225.115 73.9202V74.3882H226.339V75.5042ZM229.448 75.5042V79.1642C229.448 79.4122 229.504 79.5922 229.616 79.7042C229.736 79.8082 229.936 79.8602 230.216 79.8602H231.056V81.0002H229.976C229.36 81.0002 228.888 80.8562 228.56 80.5682C228.232 80.2802 228.068 79.8122 228.068 79.1642V75.5042H227.288V74.3882H228.068V72.7442H229.448V74.3882H231.056V75.5042H229.448ZM238.676 77.5322C238.676 77.7802 238.66 78.0042 238.628 78.2042H233.576C233.616 78.7322 233.812 79.1562 234.164 79.4762C234.516 79.7962 234.948 79.9562 235.46 79.9562C236.196 79.9562 236.716 79.6482 237.02 79.0322H238.496C238.296 79.6402 237.932 80.1402 237.404 80.5322C236.884 80.9162 236.236 81.1082 235.46 81.1082C234.828 81.1082 234.26 80.9682 233.756 80.6882C233.26 80.4002 232.868 80.0002 232.58 79.4882C232.3 78.9682 232.16 78.3682 232.16 77.6882C232.16 77.0082 232.296 76.4122 232.568 75.9002C232.848 75.3802 233.236 74.9802 233.732 74.7002C234.236 74.4202 234.812 74.2802 235.46 74.2802C236.084 74.2802 236.64 74.4162 237.128 74.6882C237.616 74.9602 237.996 75.3442 238.268 75.8402C238.54 76.3282 238.676 76.8922 238.676 77.5322ZM237.248 77.1002C237.24 76.5962 237.06 76.1922 236.708 75.8882C236.356 75.5842 235.92 75.4322 235.4 75.4322C234.928 75.4322 234.524 75.5842 234.188 75.8882C233.852 76.1842 233.652 76.5882 233.588 77.1002H237.248ZM241.691 75.3482C241.891 75.0122 242.155 74.7522 242.483 74.5682C242.819 74.3762 243.215 74.2802 243.671 74.2802V75.6962H243.323C242.787 75.6962 242.379 75.8322 242.099 76.1042C241.827 76.3762 241.691 76.8482 241.691 77.5202V81.0002H240.323V74.3882H241.691V75.3482ZM248.564 74.2802C249.084 74.2802 249.548 74.3882 249.956 74.6042C250.372 74.8202 250.696 75.1402 250.928 75.5642C251.16 75.9882 251.276 76.5002 251.276 77.1002V81.0002H249.92V77.3042C249.92 76.7122 249.772 76.2602 249.476 75.9482C249.18 75.6282 248.776 75.4682 248.264 75.4682C247.752 75.4682 247.344 75.6282 247.04 75.9482C246.744 76.2602 246.596 76.7122 246.596 77.3042V81.0002H245.228V74.3882H246.596V75.1442C246.82 74.8722 247.104 74.6602 247.448 74.5082C247.8 74.3562 248.172 74.2802 248.564 74.2802ZM256.189 81.1082C255.565 81.1082 255.001 80.9682 254.497 80.6882C253.993 80.4002 253.597 80.0002 253.309 79.4882C253.021 78.9682 252.877 78.3682 252.877 77.6882C252.877 77.0162 253.025 76.4202 253.321 75.9002C253.617 75.3802 254.021 74.9802 254.533 74.7002C255.045 74.4202 255.617 74.2802 256.249 74.2802C256.881 74.2802 257.453 74.4202 257.965 74.7002C258.477 74.9802 258.881 75.3802 259.177 75.9002C259.473 76.4202 259.621 77.0162 259.621 77.6882C259.621 78.3602 259.469 78.9562 259.165 79.4762C258.861 79.9962 258.445 80.4002 257.917 80.6882C257.397 80.9682 256.821 81.1082 256.189 81.1082ZM256.189 79.9202C256.541 79.9202 256.869 79.8362 257.173 79.6682C257.485 79.5002 257.737 79.2482 257.929 78.9122C258.121 78.5762 258.217 78.1682 258.217 77.6882C258.217 77.2082 258.125 76.8042 257.941 76.4762C257.757 76.1402 257.513 75.8882 257.209 75.7202C256.905 75.5522 256.577 75.4682 256.225 75.4682C255.873 75.4682 255.545 75.5522 255.241 75.7202C254.945 75.8882 254.709 76.1402 254.533 76.4762C254.357 76.8042 254.269 77.2082 254.269 77.6882C254.269 78.4002 254.449 78.9522 254.809 79.3442C255.177 79.7282 255.637 79.9202 256.189 79.9202ZM264.141 81.1082C263.517 81.1082 262.953 80.9682 262.449 80.6882C261.945 80.4002 261.549 80.0002 261.261 79.4882C260.973 78.9682 260.829 78.3682 260.829 77.6882C260.829 77.0162 260.977 76.4202 261.273 75.9002C261.569 75.3802 261.973 74.9802 262.485 74.7002C262.997 74.4202 263.569 74.2802 264.201 74.2802C264.833 74.2802 265.405 74.4202 265.917 74.7002C266.429 74.9802 266.833 75.3802 267.129 75.9002C267.425 76.4202 267.573 77.0162 267.573 77.6882C267.573 78.3602 267.421 78.9562 267.117 79.4762C266.813 79.9962 266.397 80.4002 265.869 80.6882C265.349 80.9682 264.773 81.1082 264.141 81.1082ZM264.141 79.9202C264.493 79.9202 264.821 79.8362 265.125 79.6682C265.437 79.5002 265.689 79.2482 265.881 78.9122C266.073 78.5762 266.169 78.1682 266.169 77.6882C266.169 77.2082 266.077 76.8042 265.893 76.4762C265.709 76.1402 265.465 75.8882 265.161 75.7202C264.857 75.5522 264.529 75.4682 264.177 75.4682C263.825 75.4682 263.497 75.5522 263.193 75.7202C262.897 75.8882 262.661 76.1402 262.485 76.4762C262.309 76.8042 262.221 77.2082 262.221 77.6882C262.221 78.4002 262.401 78.9522 262.761 79.3442C263.129 79.7282 263.589 79.9202 264.141 79.9202ZM272.562 74.2802C273.082 74.2802 273.546 74.3882 273.954 74.6042C274.37 74.8202 274.694 75.1402 274.926 75.5642C275.158 75.9882 275.274 76.5002 275.274 77.1002V81.0002H273.918V77.3042C273.918 76.7122 273.77 76.2602 273.474 75.9482C273.178 75.6282 272.774 75.4682 272.262 75.4682C271.75 75.4682 271.342 75.6282 271.038 75.9482C270.742 76.2602 270.594 76.7122 270.594 77.3042V81.0002H269.226V74.3882H270.594V75.1442C270.818 74.8722 271.102 74.6602 271.446 74.5082C271.798 74.3562 272.17 74.2802 272.562 74.2802Z" fill="white"/>
<path d="M214.72 125V123.336H218.048V135H216.208V125H214.72ZM221.83 135.112C221.499 135.112 221.222 135 220.998 134.776C220.774 134.552 220.662 134.274 220.662 133.944C220.662 133.613 220.774 133.336 220.998 133.112C221.222 132.888 221.499 132.776 221.83 132.776C222.15 132.776 222.422 132.888 222.646 133.112C222.87 133.336 222.982 133.613 222.982 133.944C222.982 134.274 222.87 134.552 222.646 134.776C222.422 135 222.15 135.112 221.83 135.112ZM226.981 128.904C225.872 128.349 225.317 127.474 225.317 126.28C225.317 125.704 225.461 125.176 225.749 124.696C226.037 124.216 226.469 123.837 227.045 123.56C227.621 123.272 228.325 123.128 229.157 123.128C229.978 123.128 230.677 123.272 231.253 123.56C231.84 123.837 232.277 124.216 232.565 124.696C232.853 125.176 232.997 125.704 232.997 126.28C232.997 126.877 232.842 127.405 232.533 127.864C232.234 128.312 231.834 128.658 231.333 128.904C231.941 129.128 232.421 129.496 232.773 130.008C233.125 130.509 233.301 131.101 233.301 131.784C233.301 132.477 233.125 133.09 232.773 133.624C232.421 134.157 231.93 134.568 231.301 134.856C230.672 135.144 229.957 135.288 229.157 135.288C228.357 135.288 227.642 135.144 227.013 134.856C226.394 134.568 225.909 134.157 225.557 133.624C225.205 133.09 225.029 132.477 225.029 131.784C225.029 131.09 225.205 130.493 225.557 129.992C225.909 129.49 226.384 129.128 226.981 128.904ZM231.253 126.504C231.253 125.906 231.066 125.448 230.693 125.128C230.32 124.808 229.808 124.648 229.157 124.648C228.517 124.648 228.01 124.808 227.637 125.128C227.264 125.448 227.077 125.912 227.077 126.52C227.077 127.053 227.269 127.49 227.653 127.832C228.048 128.162 228.549 128.328 229.157 128.328C229.765 128.328 230.266 128.157 230.661 127.816C231.056 127.474 231.253 127.037 231.253 126.504ZM229.157 129.704C228.453 129.704 227.877 129.88 227.429 130.232C226.992 130.573 226.773 131.069 226.773 131.72C226.773 132.328 226.986 132.824 227.413 133.208C227.84 133.581 228.421 133.768 229.157 133.768C229.882 133.768 230.453 133.576 230.869 133.192C231.296 132.808 231.509 132.317 231.509 131.72C231.509 131.08 231.29 130.584 230.853 130.232C230.426 129.88 229.861 129.704 229.157 129.704ZM237.788 131.832C237.895 132.365 238.124 132.77 238.476 133.048C238.828 133.325 239.303 133.464 239.9 133.464C240.658 133.464 241.212 133.165 241.564 132.568C241.916 131.97 242.092 130.952 242.092 129.512C241.836 129.874 241.474 130.157 241.004 130.36C240.546 130.552 240.044 130.648 239.5 130.648C238.807 130.648 238.178 130.509 237.612 130.232C237.047 129.944 236.599 129.522 236.268 128.968C235.948 128.402 235.788 127.72 235.788 126.92C235.788 125.746 236.13 124.813 236.812 124.12C237.506 123.416 238.455 123.064 239.66 123.064C241.111 123.064 242.14 123.549 242.748 124.52C243.367 125.48 243.676 126.957 243.676 128.952C243.676 130.328 243.559 131.453 243.324 132.328C243.1 133.202 242.706 133.864 242.14 134.312C241.575 134.76 240.791 134.984 239.788 134.984C238.647 134.984 237.767 134.685 237.148 134.088C236.53 133.49 236.183 132.738 236.108 131.832H237.788ZM239.82 129.112C240.46 129.112 240.962 128.914 241.324 128.52C241.698 128.114 241.884 127.581 241.884 126.92C241.884 126.184 241.687 125.613 241.292 125.208C240.908 124.792 240.38 124.584 239.708 124.584C239.036 124.584 238.503 124.797 238.108 125.224C237.724 125.64 237.532 126.189 237.532 126.872C237.532 127.522 237.719 128.061 238.092 128.488C238.476 128.904 239.052 129.112 239.82 129.112ZM245.973 129.016C245.973 127.17 246.282 125.73 246.901 124.696C247.53 123.65 248.607 123.128 250.133 123.128C251.658 123.128 252.73 123.65 253.349 124.696C253.978 125.73 254.293 127.17 254.293 129.016C254.293 130.882 253.978 132.344 253.349 133.4C252.73 134.445 251.658 134.968 250.133 134.968C248.607 134.968 247.53 134.445 246.901 133.4C246.282 132.344 245.973 130.882 245.973 129.016ZM252.501 129.016C252.501 128.152 252.442 127.421 252.325 126.824C252.218 126.226 251.994 125.741 251.653 125.368C251.311 124.984 250.805 124.792 250.133 124.792C249.461 124.792 248.954 124.984 248.613 125.368C248.271 125.741 248.042 126.226 247.925 126.824C247.818 127.421 247.765 128.152 247.765 129.016C247.765 129.912 247.818 130.664 247.925 131.272C248.031 131.88 248.255 132.37 248.597 132.744C248.949 133.117 249.461 133.304 250.133 133.304C250.805 133.304 251.311 133.117 251.653 132.744C252.005 132.37 252.234 131.88 252.341 131.272C252.447 130.664 252.501 129.912 252.501 129.016ZM265.043 135.144C264.211 135.144 263.459 134.957 262.787 134.584C262.115 134.2 261.587 133.666 261.203 132.984C260.819 132.29 260.627 131.49 260.627 130.584C260.627 129.688 260.824 128.893 261.219 128.2C261.613 127.506 262.152 126.973 262.835 126.6C263.517 126.226 264.28 126.04 265.123 126.04C265.965 126.04 266.728 126.226 267.411 126.6C268.093 126.973 268.632 127.506 269.027 128.2C269.421 128.893 269.619 129.688 269.619 130.584C269.619 131.48 269.416 132.274 269.011 132.968C268.605 133.661 268.051 134.2 267.347 134.584C266.653 134.957 265.885 135.144 265.043 135.144ZM265.043 133.56C265.512 133.56 265.949 133.448 266.355 133.224C266.771 133 267.107 132.664 267.363 132.216C267.619 131.768 267.747 131.224 267.747 130.584C267.747 129.944 267.624 129.405 267.379 128.968C267.133 128.52 266.808 128.184 266.403 127.96C265.997 127.736 265.56 127.624 265.091 127.624C264.621 127.624 264.184 127.736 263.779 127.96C263.384 128.184 263.069 128.52 262.835 128.968C262.6 129.405 262.483 129.944 262.483 130.584C262.483 131.533 262.723 132.269 263.203 132.792C263.693 133.304 264.307 133.56 265.043 133.56ZM273.546 127.464C273.813 127.016 274.165 126.669 274.602 126.424C275.05 126.168 275.578 126.04 276.186 126.04V127.928H275.722C275.007 127.928 274.463 128.109 274.09 128.472C273.727 128.834 273.546 129.464 273.546 130.36V135H271.722V126.184H273.546V127.464ZM277.555 130.552C277.555 129.666 277.736 128.882 278.099 128.2C278.472 127.517 278.973 126.989 279.603 126.616C280.243 126.232 280.952 126.04 281.731 126.04C282.307 126.04 282.872 126.168 283.427 126.424C283.992 126.669 284.44 127 284.771 127.416V123.16H286.611V135H284.771V133.672C284.472 134.098 284.056 134.45 283.523 134.728C283 135.005 282.397 135.144 281.715 135.144C280.947 135.144 280.243 134.952 279.603 134.568C278.973 134.173 278.472 133.629 278.099 132.936C277.736 132.232 277.555 131.437 277.555 130.552ZM284.771 130.584C284.771 129.976 284.643 129.448 284.387 129C284.141 128.552 283.816 128.21 283.411 127.976C283.005 127.741 282.568 127.624 282.099 127.624C281.629 127.624 281.192 127.741 280.787 127.976C280.381 128.2 280.051 128.536 279.795 128.984C279.549 129.421 279.427 129.944 279.427 130.552C279.427 131.16 279.549 131.693 279.795 132.152C280.051 132.61 280.381 132.962 280.787 133.208C281.203 133.442 281.64 133.56 282.099 133.56C282.568 133.56 283.005 133.442 283.411 133.208C283.816 132.973 284.141 132.632 284.387 132.184C284.643 131.725 284.771 131.192 284.771 130.584ZM297.386 130.376C297.386 130.706 297.365 131.005 297.322 131.272H290.586C290.64 131.976 290.901 132.541 291.37 132.968C291.84 133.394 292.416 133.608 293.098 133.608C294.08 133.608 294.773 133.197 295.178 132.376H297.146C296.88 133.186 296.394 133.853 295.69 134.376C294.997 134.888 294.133 135.144 293.098 135.144C292.256 135.144 291.498 134.957 290.826 134.584C290.165 134.2 289.642 133.666 289.258 132.984C288.885 132.29 288.698 131.49 288.698 130.584C288.698 129.677 288.88 128.882 289.242 128.2C289.616 127.506 290.133 126.973 290.794 126.6C291.466 126.226 292.234 126.04 293.098 126.04C293.93 126.04 294.672 126.221 295.322 126.584C295.973 126.946 296.48 127.458 296.842 128.12C297.205 128.77 297.386 129.522 297.386 130.376ZM295.482 129.8C295.472 129.128 295.232 128.589 294.762 128.184C294.293 127.778 293.712 127.576 293.018 127.576C292.389 127.576 291.85 127.778 291.402 128.184C290.954 128.578 290.688 129.117 290.602 129.8H295.482ZM301.305 127.464C301.572 127.016 301.924 126.669 302.361 126.424C302.809 126.168 303.337 126.04 303.945 126.04V127.928H303.481C302.767 127.928 302.223 128.109 301.849 128.472C301.487 128.834 301.305 129.464 301.305 130.36V135H299.481V126.184H301.305V127.464ZM309.122 135.144C308.429 135.144 307.805 135.021 307.25 134.776C306.706 134.52 306.274 134.178 305.954 133.752C305.634 133.314 305.463 132.829 305.442 132.296H307.33C307.362 132.669 307.538 132.984 307.858 133.24C308.189 133.485 308.599 133.608 309.09 133.608C309.602 133.608 309.997 133.512 310.274 133.32C310.562 133.117 310.706 132.861 310.706 132.552C310.706 132.221 310.546 131.976 310.226 131.816C309.917 131.656 309.421 131.48 308.738 131.288C308.077 131.106 307.538 130.93 307.122 130.76C306.706 130.589 306.343 130.328 306.034 129.976C305.735 129.624 305.586 129.16 305.586 128.584C305.586 128.114 305.725 127.688 306.002 127.304C306.279 126.909 306.674 126.6 307.186 126.376C307.709 126.152 308.306 126.04 308.978 126.04C309.981 126.04 310.786 126.296 311.394 126.808C312.013 127.309 312.343 127.997 312.386 128.872H310.562C310.53 128.477 310.37 128.162 310.082 127.928C309.794 127.693 309.405 127.576 308.914 127.576C308.434 127.576 308.066 127.666 307.81 127.848C307.554 128.029 307.426 128.269 307.426 128.568C307.426 128.802 307.511 129 307.682 129.16C307.853 129.32 308.061 129.448 308.306 129.544C308.551 129.629 308.914 129.741 309.394 129.88C310.034 130.05 310.557 130.226 310.962 130.408C311.378 130.578 311.735 130.834 312.034 131.176C312.333 131.517 312.487 131.97 312.498 132.536C312.498 133.037 312.359 133.485 312.082 133.88C311.805 134.274 311.41 134.584 310.898 134.808C310.397 135.032 309.805 135.144 309.122 135.144Z" fill="white"/>
<g filter="url(#filter0_d_0_172)">
<path d="M253 5C253 2.23858 255.239 0 258 0H357C359.761 0 362 2.23858 362 5V27C362 29.7614 359.761 32 357 32H258C255.239 32 253 29.7614 253 27V5Z" fill="#FBFCFE"/>
<path d="M258 0.25H357C359.623 0.25 361.75 2.37665 361.75 5V27C361.75 29.6234 359.623 31.75 357 31.75H258C255.377 31.75 253.25 29.6234 253.25 27V5C253.25 2.37665 255.377 0.25 258 0.25Z" stroke="#DDE4F0" stroke-width="0.5"/>
</g>
<path d="M277.087 11.66L273.955 20H272.371L269.227 11.66H270.691L273.163 18.596L275.647 11.66H277.087ZM279.427 12.512C279.179 12.512 278.971 12.428 278.803 12.26C278.635 12.092 278.551 11.884 278.551 11.636C278.551 11.388 278.635 11.18 278.803 11.012C278.971 10.844 279.179 10.76 279.427 10.76C279.667 10.76 279.871 10.844 280.039 11.012C280.207 11.18 280.291 11.388 280.291 11.636C280.291 11.884 280.207 12.092 280.039 12.26C279.871 12.428 279.667 12.512 279.427 12.512ZM280.099 13.388V20L278.731 20V13.388L280.099 13.388ZM288.455 16.532C288.455 16.78 288.439 17.004 288.407 17.204H283.355C283.395 17.732 283.591 18.156 283.943 18.476C284.295 18.796 284.727 18.956 285.239 18.956C285.975 18.956 286.495 18.648 286.799 18.032H288.275C288.075 18.64 287.711 19.14 287.183 19.532C286.663 19.916 286.015 20.108 285.239 20.108C284.607 20.108 284.039 19.968 283.535 19.688C283.039 19.4 282.647 19 282.359 18.488C282.079 17.968 281.939 17.368 281.939 16.688C281.939 16.008 282.075 15.412 282.347 14.9C282.627 14.38 283.015 13.98 283.511 13.7C284.015 13.42 284.591 13.28 285.239 13.28C285.863 13.28 286.419 13.416 286.907 13.688C287.395 13.96 287.775 14.344 288.047 14.84C288.319 15.328 288.455 15.892 288.455 16.532ZM287.027 16.1C287.019 15.596 286.839 15.192 286.487 14.888C286.135 14.584 285.699 14.432 285.179 14.432C284.707 14.432 284.303 14.584 283.967 14.888C283.631 15.184 283.431 15.588 283.367 16.1H287.027ZM299.181 13.388L297.129 20H295.689L294.357 15.116L293.025 20H291.585L289.521 13.388L290.913 13.388L292.293 18.704L293.697 13.388H295.125L296.469 18.68L297.837 13.388L299.181 13.388ZM308.653 20L306.733 16.664H305.689V20H304.321V11.66L307.201 11.66C307.841 11.66 308.381 11.772 308.821 11.996C309.269 12.22 309.601 12.52 309.817 12.896C310.041 13.272 310.153 13.692 310.153 14.156C310.153 14.7 309.993 15.196 309.673 15.644C309.361 16.084 308.877 16.384 308.221 16.544L310.285 20H308.653ZM305.689 15.572L307.201 15.572C307.713 15.572 308.097 15.444 308.353 15.188C308.617 14.932 308.749 14.588 308.749 14.156C308.749 13.724 308.621 13.388 308.365 13.148C308.109 12.9 307.721 12.776 307.201 12.776L305.689 12.776V15.572ZM318.463 16.532C318.463 16.78 318.447 17.004 318.415 17.204H313.363C313.403 17.732 313.599 18.156 313.951 18.476C314.303 18.796 314.735 18.956 315.247 18.956C315.983 18.956 316.503 18.648 316.807 18.032H318.283C318.083 18.64 317.719 19.14 317.191 19.532C316.671 19.916 316.023 20.108 315.247 20.108C314.615 20.108 314.047 19.968 313.543 19.688C313.047 19.4 312.655 19 312.367 18.488C312.087 17.968 311.947 17.368 311.947 16.688C311.947 16.008 312.083 15.412 312.355 14.9C312.635 14.38 313.023 13.98 313.519 13.7C314.023 13.42 314.599 13.28 315.247 13.28C315.871 13.28 316.427 13.416 316.915 13.688C317.403 13.96 317.783 14.344 318.055 14.84C318.327 15.328 318.463 15.892 318.463 16.532ZM317.035 16.1C317.027 15.596 316.847 15.192 316.495 14.888C316.143 14.584 315.707 14.432 315.187 14.432C314.715 14.432 314.311 14.584 313.975 14.888C313.639 15.184 313.439 15.588 313.375 16.1H317.035ZM321.677 14.36C321.909 14.056 322.225 13.8 322.625 13.592C323.025 13.384 323.477 13.28 323.981 13.28C324.557 13.28 325.081 13.424 325.553 13.712C326.033 13.992 326.409 14.388 326.681 14.9C326.953 15.412 327.089 16 327.089 16.664C327.089 17.328 326.953 17.924 326.681 18.452C326.409 18.972 326.033 19.38 325.553 19.676C325.081 19.964 324.557 20.108 323.981 20.108C323.477 20.108 323.029 20.008 322.637 19.808C322.245 19.6 321.925 19.344 321.677 19.04V23.144L320.309 23.144V13.388H321.677V14.36ZM325.697 16.664C325.697 16.208 325.601 15.816 325.409 15.488C325.225 15.152 324.977 14.9 324.665 14.732C324.361 14.556 324.033 14.468 323.681 14.468C323.337 14.468 323.009 14.556 322.697 14.732C322.393 14.908 322.145 15.164 321.953 15.5C321.769 15.836 321.677 16.232 321.677 16.688C321.677 17.144 321.769 17.544 321.953 17.888C322.145 18.224 322.393 18.48 322.697 18.656C323.009 18.832 323.337 18.92 323.681 18.92C324.033 18.92 324.361 18.832 324.665 18.656C324.977 18.472 325.225 18.208 325.409 17.864C325.601 17.52 325.697 17.12 325.697 16.664ZM331.81 20.108C331.186 20.108 330.622 19.968 330.118 19.688C329.614 19.4 329.218 19 328.93 18.488C328.642 17.968 328.498 17.368 328.498 16.688C328.498 16.016 328.646 15.42 328.942 14.9C329.238 14.38 329.642 13.98 330.154 13.7C330.666 13.42 331.238 13.28 331.87 13.28C332.502 13.28 333.074 13.42 333.586 13.7C334.098 13.98 334.502 14.38 334.798 14.9C335.094 15.42 335.242 16.016 335.242 16.688C335.242 17.36 335.09 17.956 334.786 18.476C334.482 18.996 334.066 19.4 333.538 19.688C333.018 19.968 332.442 20.108 331.81 20.108ZM331.81 18.92C332.162 18.92 332.49 18.836 332.794 18.668C333.106 18.5 333.358 18.248 333.55 17.912C333.742 17.576 333.838 17.168 333.838 16.688C333.838 16.208 333.746 15.804 333.562 15.476C333.378 15.14 333.134 14.888 332.83 14.72C332.526 14.552 332.198 14.468 331.846 14.468C331.494 14.468 331.166 14.552 330.862 14.72C330.566 14.888 330.33 15.14 330.154 15.476C329.978 15.804 329.89 16.208 329.89 16.688C329.89 17.4 330.07 17.952 330.43 18.344C330.798 18.728 331.258 18.92 331.81 18.92ZM338.462 14.348C338.662 14.012 338.926 13.752 339.254 13.568C339.59 13.376 339.986 13.28 340.442 13.28V14.696H340.094C339.558 14.696 339.15 14.832 338.87 15.104C338.598 15.376 338.462 15.848 338.462 16.52V20H337.094V13.388L338.462 13.388V14.348ZM343.796 14.504V18.164C343.796 18.412 343.852 18.592 343.964 18.704C344.084 18.808 344.284 18.86 344.564 18.86H345.404V20H344.324C343.708 20 343.236 19.856 342.908 19.568C342.58 19.28 342.416 18.812 342.416 18.164V14.504H341.636V13.388H342.416V11.744H343.796V13.388L345.404 13.388V14.504H343.796Z" fill="#5A6ACF"/>
<path opacity="0.5" d="M6.123 35.939V36.901H2.184V39.956H5.382V40.918H2.184V45H1.001V35.939H6.123ZM9.23478 39.033C9.44278 38.6257 9.73745 38.3093 10.1188 38.084C10.5088 37.8587 10.9811 37.746 11.5358 37.746V38.968H11.2238C9.89778 38.968 9.23478 39.6873 9.23478 41.126V45H8.05178V37.876H9.23478V39.033ZM16.5084 45.117C15.8411 45.117 15.2344 44.9653 14.6884 44.662C14.1511 44.3587 13.7264 43.9297 13.4144 43.375C13.1111 42.8117 12.9594 42.1617 12.9594 41.425C12.9594 40.697 13.1154 40.0557 13.4274 39.501C13.7481 38.9377 14.1814 38.5087 14.7274 38.214C15.2734 37.9107 15.8844 37.759 16.5604 37.759C17.2364 37.759 17.8474 37.9107 18.3934 38.214C18.9394 38.5087 19.3684 38.9333 19.6804 39.488C20.0011 40.0427 20.1614 40.6883 20.1614 41.425C20.1614 42.1617 19.9967 42.8117 19.6674 43.375C19.3467 43.9297 18.9091 44.3587 18.3544 44.662C17.7997 44.9653 17.1844 45.117 16.5084 45.117ZM16.5084 44.077C16.9331 44.077 17.3317 43.9773 17.7044 43.778C18.0771 43.5787 18.3761 43.2797 18.6014 42.881C18.8354 42.4823 18.9524 41.997 18.9524 41.425C18.9524 40.853 18.8397 40.3677 18.6144 39.969C18.3891 39.5703 18.0944 39.2757 17.7304 39.085C17.3664 38.8857 16.9721 38.786 16.5474 38.786C16.1141 38.786 15.7154 38.8857 15.3514 39.085C14.9961 39.2757 14.7101 39.5703 14.4934 39.969C14.2767 40.3677 14.1684 40.853 14.1684 41.425C14.1684 42.0057 14.2724 42.4953 14.4804 42.894C14.6971 43.2927 14.9831 43.5917 15.3384 43.791C15.6937 43.9817 16.0837 44.077 16.5084 44.077ZM30.7838 37.746C31.3385 37.746 31.8325 37.863 32.2658 38.097C32.6992 38.3223 33.0415 38.6647 33.2928 39.124C33.5442 39.5833 33.6698 40.1423 33.6698 40.801V45H32.4998V40.97C32.4998 40.2593 32.3222 39.7177 31.9668 39.345C31.6202 38.9637 31.1478 38.773 30.5498 38.773C29.9345 38.773 29.4448 38.9723 29.0808 39.371C28.7168 39.761 28.5348 40.3287 28.5348 41.074V45H27.3648V40.97C27.3648 40.2593 27.1872 39.7177 26.8318 39.345C26.4852 38.9637 26.0128 38.773 25.4148 38.773C24.7995 38.773 24.3098 38.9723 23.9458 39.371C23.5818 39.761 23.3998 40.3287 23.3998 41.074V45H22.2168V37.876H23.3998V38.903C23.6338 38.5303 23.9458 38.2443 24.3358 38.045C24.7345 37.8457 25.1722 37.746 25.6488 37.746C26.2468 37.746 26.7755 37.8803 27.2348 38.149C27.6942 38.4177 28.0365 38.812 28.2618 39.332C28.4612 38.8293 28.7905 38.4393 29.2498 38.162C29.7092 37.8847 30.2205 37.746 30.7838 37.746ZM39.5692 36.68V35.601H42.0132V45H40.8172V36.68H39.5692ZM49.6803 39.735V40.736H44.4933V39.735H49.6803ZM57.4444 37.837C57.2537 36.875 56.6601 36.394 55.6634 36.394C54.8921 36.394 54.3157 36.693 53.9344 37.291C53.5531 37.8803 53.3667 38.8553 53.3754 40.216C53.5747 39.7653 53.9041 39.4143 54.3634 39.163C54.8314 38.903 55.3514 38.773 55.9234 38.773C56.8161 38.773 57.5267 39.0503 58.0554 39.605C58.5927 40.1597 58.8614 40.9267 58.8614 41.906C58.8614 42.4953 58.7444 43.024 58.5104 43.492C58.2851 43.96 57.9384 44.3327 57.4704 44.61C57.0111 44.8873 56.4521 45.026 55.7934 45.026C54.9007 45.026 54.2031 44.8267 53.7004 44.428C53.1977 44.0293 52.8467 43.479 52.6474 42.777C52.4481 42.075 52.3484 41.2083 52.3484 40.177C52.3484 36.9963 53.4577 35.406 55.6764 35.406C56.5257 35.406 57.1931 35.6357 57.6784 36.095C58.1637 36.5543 58.4497 37.135 58.5364 37.837H57.4444ZM55.6764 39.774C55.3037 39.774 54.9527 39.852 54.6234 40.008C54.2941 40.1553 54.0254 40.385 53.8174 40.697C53.6181 41.0003 53.5184 41.373 53.5184 41.815C53.5184 42.4737 53.7091 43.011 54.0904 43.427C54.4717 43.8343 55.0177 44.038 55.7284 44.038C56.3351 44.038 56.8161 43.8517 57.1714 43.479C57.5354 43.0977 57.7174 42.5863 57.7174 41.945C57.7174 41.269 57.5441 40.7403 57.1974 40.359C56.8507 39.969 56.3437 39.774 55.6764 39.774ZM67.9392 35.939C68.9272 35.939 69.7809 36.1253 70.5002 36.498C71.2282 36.862 71.7829 37.3863 72.1642 38.071C72.5542 38.7557 72.7492 39.5617 72.7492 40.489C72.7492 41.4163 72.5542 42.2223 72.1642 42.907C71.7829 43.583 71.2282 44.103 70.5002 44.467C69.7809 44.8223 68.9272 45 67.9392 45H65.1182V35.939H67.9392ZM67.9392 44.025C69.1092 44.025 70.0019 43.7173 70.6172 43.102C71.2325 42.478 71.5402 41.607 71.5402 40.489C71.5402 39.3623 71.2282 38.4827 70.6042 37.85C69.9889 37.2173 69.1005 36.901 67.9392 36.901H66.3012V44.025H67.9392ZM81.3096 41.165C81.3096 41.3903 81.2966 41.6287 81.2706 41.88H75.5766C75.6199 42.582 75.8583 43.1323 76.2916 43.531C76.7336 43.921 77.2666 44.116 77.8906 44.116C78.4019 44.116 78.8266 43.999 79.1646 43.765C79.5113 43.5223 79.7539 43.2017 79.8926 42.803H81.1666C80.9759 43.4877 80.5946 44.0467 80.0226 44.48C79.4506 44.9047 78.7399 45.117 77.8906 45.117C77.2146 45.117 76.6079 44.9653 76.0706 44.662C75.5419 44.3587 75.1259 43.9297 74.8226 43.375C74.5193 42.8117 74.3676 42.1617 74.3676 41.425C74.3676 40.6883 74.5149 40.0427 74.8096 39.488C75.1043 38.9333 75.5159 38.5087 76.0446 38.214C76.5819 37.9107 77.1973 37.759 77.8906 37.759C78.5666 37.759 79.1646 37.9063 79.6846 38.201C80.2046 38.4957 80.6033 38.903 80.8806 39.423C81.1666 39.9343 81.3096 40.515 81.3096 41.165ZM80.0876 40.918C80.0876 40.4673 79.9879 40.0817 79.7886 39.761C79.5893 39.4317 79.3163 39.1847 78.9696 39.02C78.6316 38.8467 78.2546 38.76 77.8386 38.76C77.2406 38.76 76.7293 38.9507 76.3046 39.332C75.8886 39.7133 75.6503 40.242 75.5896 40.918H80.0876ZM82.9291 41.425C82.9291 40.6883 83.0765 40.047 83.3711 39.501C83.6658 38.9463 84.0731 38.5173 84.5931 38.214C85.1218 37.9107 85.7241 37.759 86.4001 37.759C87.2755 37.759 87.9948 37.9713 88.5581 38.396C89.1301 38.8207 89.5071 39.41 89.6891 40.164H88.4151C88.2938 39.7307 88.0555 39.3883 87.7001 39.137C87.3535 38.8857 86.9201 38.76 86.4001 38.76C85.7241 38.76 85.1781 38.994 84.7621 39.462C84.3461 39.9213 84.1381 40.5757 84.1381 41.425C84.1381 42.283 84.3461 42.946 84.7621 43.414C85.1781 43.882 85.7241 44.116 86.4001 44.116C86.9201 44.116 87.3535 43.9947 87.7001 43.752C88.0468 43.5093 88.2851 43.1627 88.4151 42.712H89.6891C89.4985 43.44 89.1171 44.025 88.5451 44.467C87.9731 44.9003 87.2581 45.117 86.4001 45.117C85.7241 45.117 85.1218 44.9653 84.5931 44.662C84.0731 44.3587 83.6658 43.9297 83.3711 43.375C83.0765 42.8203 82.9291 42.1703 82.9291 41.425ZM92.9896 43.362L91.5336 46.859H90.7406L91.6896 43.362H92.9896ZM98.4726 44.051C99.5732 43.167 100.436 42.4433 101.06 41.88C101.684 41.308 102.208 40.7143 102.633 40.099C103.066 39.475 103.283 38.864 103.283 38.266C103.283 37.7027 103.144 37.2607 102.867 36.94C102.598 36.6107 102.16 36.446 101.554 36.446C100.964 36.446 100.505 36.6323 100.176 37.005C99.8549 37.369 99.6816 37.8587 99.6556 38.474H98.5116C98.5462 37.5033 98.8409 36.7537 99.3956 36.225C99.9502 35.6963 100.665 35.432 101.541 35.432C102.433 35.432 103.14 35.679 103.66 36.173C104.188 36.667 104.453 37.3473 104.453 38.214C104.453 38.9333 104.236 39.6353 103.803 40.32C103.378 40.996 102.893 41.594 102.347 42.114C101.801 42.6253 101.103 43.2233 100.254 43.908H104.726V44.896H98.4726V44.051ZM106.593 40.203C106.593 38.7123 106.836 37.551 107.321 36.719C107.806 35.8783 108.656 35.458 109.869 35.458C111.074 35.458 111.919 35.8783 112.404 36.719C112.889 37.551 113.132 38.7123 113.132 40.203C113.132 41.7197 112.889 42.8983 112.404 43.739C111.919 44.5797 111.074 45 109.869 45C108.656 45 107.806 44.5797 107.321 43.739C106.836 42.8983 106.593 41.7197 106.593 40.203ZM111.962 40.203C111.962 39.449 111.91 38.812 111.806 38.292C111.711 37.7633 111.507 37.3387 111.195 37.018C110.892 36.6973 110.45 36.537 109.869 36.537C109.28 36.537 108.829 36.6973 108.517 37.018C108.214 37.3387 108.01 37.7633 107.906 38.292C107.811 38.812 107.763 39.449 107.763 40.203C107.763 40.983 107.811 41.6373 107.906 42.166C108.01 42.6947 108.214 43.1193 108.517 43.44C108.829 43.7607 109.28 43.921 109.869 43.921C110.45 43.921 110.892 43.7607 111.195 43.44C111.507 43.1193 111.711 42.6947 111.806 42.166C111.91 41.6373 111.962 40.983 111.962 40.203ZM115.113 44.051C116.214 43.167 117.076 42.4433 117.7 41.88C118.324 41.308 118.849 40.7143 119.273 40.099C119.707 39.475 119.923 38.864 119.923 38.266C119.923 37.7027 119.785 37.2607 119.507 36.94C119.239 36.6107 118.801 36.446 118.194 36.446C117.605 36.446 117.146 36.6323 116.816 37.005C116.496 37.369 116.322 37.8587 116.296 38.474H115.152C115.187 37.5033 115.482 36.7537 116.036 36.225C116.591 35.6963 117.306 35.432 118.181 35.432C119.074 35.432 119.78 35.679 120.3 36.173C120.829 36.667 121.093 37.3473 121.093 38.214C121.093 38.9333 120.877 39.6353 120.443 40.32C120.019 40.996 119.533 41.594 118.987 42.114C118.441 42.6253 117.744 43.2233 116.894 43.908H121.366V44.896H115.113V44.051ZM123.234 40.203C123.234 38.7123 123.476 37.551 123.962 36.719C124.447 35.8783 125.296 35.458 126.51 35.458C127.714 35.458 128.559 35.8783 129.045 36.719C129.53 37.551 129.773 38.7123 129.773 40.203C129.773 41.7197 129.53 42.8983 129.045 43.739C128.559 44.5797 127.714 45 126.51 45C125.296 45 124.447 44.5797 123.962 43.739C123.476 42.8983 123.234 41.7197 123.234 40.203ZM128.603 40.203C128.603 39.449 128.551 38.812 128.447 38.292C128.351 37.7633 128.148 37.3387 127.836 37.018C127.532 36.6973 127.09 36.537 126.51 36.537C125.92 36.537 125.47 36.6973 125.158 37.018C124.854 37.3387 124.651 37.7633 124.547 38.292C124.451 38.812 124.404 39.449 124.404 40.203C124.404 40.983 124.451 41.6373 124.547 42.166C124.651 42.6947 124.854 43.1193 125.158 43.44C125.47 43.7607 125.92 43.921 126.51 43.921C127.09 43.921 127.532 43.7607 127.836 43.44C128.148 43.1193 128.351 42.6947 128.447 42.166C128.551 41.6373 128.603 40.983 128.603 40.203Z" fill="black"/>
<path d="M5.502 16.098C4.59667 16.098 3.77067 15.888 3.024 15.468C2.27733 15.0387 1.68467 14.446 1.246 13.69C0.816667 12.9247 0.602 12.066 0.602 11.114C0.602 10.162 0.816667 9.308 1.246 8.552C1.68467 7.78667 2.27733 7.194 3.024 6.774C3.77067 6.34467 4.59667 6.13 5.502 6.13C6.41667 6.13 7.24733 6.34467 7.994 6.774C8.74067 7.194 9.32867 7.782 9.758 8.538C10.1873 9.294 10.402 10.1527 10.402 11.114C10.402 12.0753 10.1873 12.934 9.758 13.69C9.32867 14.446 8.74067 15.0387 7.994 15.468C7.24733 15.888 6.41667 16.098 5.502 16.098ZM5.502 14.992C6.18333 14.992 6.79467 14.8333 7.336 14.516C7.88667 14.1987 8.316 13.746 8.624 13.158C8.94133 12.57 9.1 11.8887 9.1 11.114C9.1 10.33 8.94133 9.64867 8.624 9.07C8.316 8.482 7.89133 8.02933 7.35 7.712C6.80867 7.39467 6.19267 7.236 5.502 7.236C4.81133 7.236 4.19533 7.39467 3.654 7.712C3.11267 8.02933 2.68333 8.482 2.366 9.07C2.058 9.64867 1.904 10.33 1.904 11.114C1.904 11.8887 2.058 12.57 2.366 13.158C2.68333 13.746 3.11267 14.1987 3.654 14.516C4.20467 14.8333 4.82067 14.992 5.502 14.992ZM13.8579 9.574C14.0819 9.13533 14.3992 8.79467 14.8099 8.552C15.2299 8.30933 15.7385 8.188 16.3359 8.188V9.504H15.9999C14.5719 9.504 13.8579 10.2787 13.8579 11.828V16H12.5839V8.328H13.8579V9.574ZM17.8305 12.136C17.8305 11.352 17.9892 10.666 18.3065 10.078C18.6238 9.48067 19.0578 9.01867 19.6085 8.692C20.1685 8.36533 20.7938 8.202 21.4845 8.202C22.0818 8.202 22.6372 8.342 23.1505 8.622C23.6638 8.89267 24.0558 9.252 24.3265 9.7V5.64H25.6145V16H24.3265V14.558C24.0745 15.0153 23.7012 15.3933 23.2065 15.692C22.7118 15.9813 22.1332 16.126 21.4705 16.126C20.7892 16.126 20.1685 15.958 19.6085 15.622C19.0578 15.286 18.6238 14.8147 18.3065 14.208C17.9892 13.6013 17.8305 12.9107 17.8305 12.136ZM24.3265 12.15C24.3265 11.5713 24.2098 11.0673 23.9765 10.638C23.7432 10.2087 23.4258 9.882 23.0245 9.658C22.6325 9.42467 22.1985 9.308 21.7225 9.308C21.2465 9.308 20.8125 9.42 20.4205 9.644C20.0285 9.868 19.7158 10.1947 19.4825 10.624C19.2492 11.0533 19.1325 11.5573 19.1325 12.136C19.1325 12.724 19.2492 13.2373 19.4825 13.676C19.7158 14.1053 20.0285 14.4367 20.4205 14.67C20.8125 14.894 21.2465 15.006 21.7225 15.006C22.1985 15.006 22.6325 14.894 23.0245 14.67C23.4258 14.4367 23.7432 14.1053 23.9765 13.676C24.2098 13.2373 24.3265 12.7287 24.3265 12.15ZM35.2675 11.87C35.2675 12.1127 35.2535 12.3693 35.2255 12.64H29.0935C29.1401 13.396 29.3968 13.9887 29.8635 14.418C30.3395 14.838 30.9135 15.048 31.5855 15.048C32.1361 15.048 32.5935 14.922 32.9575 14.67C33.3308 14.4087 33.5921 14.0633 33.7415 13.634H35.1135C34.9081 14.3713 34.4975 14.9733 33.8815 15.44C33.2655 15.8973 32.5001 16.126 31.5855 16.126C30.8575 16.126 30.2041 15.9627 29.6255 15.636C29.0561 15.3093 28.6081 14.8473 28.2815 14.25C27.9548 13.6433 27.7915 12.9433 27.7915 12.15C27.7915 11.3567 27.9501 10.6613 28.2675 10.064C28.5848 9.46667 29.0281 9.00933 29.5975 8.692C30.1761 8.36533 30.8388 8.202 31.5855 8.202C32.3135 8.202 32.9575 8.36067 33.5175 8.678C34.0775 8.99533 34.5068 9.434 34.8055 9.994C35.1135 10.5447 35.2675 11.17 35.2675 11.87ZM33.9515 11.604C33.9515 11.1187 33.8441 10.7033 33.6295 10.358C33.4148 10.0033 33.1208 9.73733 32.7475 9.56C32.3835 9.37333 31.9775 9.28 31.5295 9.28C30.8855 9.28 30.3348 9.48533 29.8775 9.896C29.4295 10.3067 29.1728 10.876 29.1075 11.604H33.9515ZM38.7231 9.574C38.9471 9.13533 39.2644 8.79467 39.6751 8.552C40.0951 8.30933 40.6038 8.188 41.2011 8.188V9.504H40.8651C39.4371 9.504 38.7231 10.2787 38.7231 11.828V16H37.4491V8.328H38.7231V9.574ZM53.4102 6.242V7.278H50.7502V16H49.4762V7.278H46.8022V6.242H53.4102ZM56.1364 7.082C55.8937 7.082 55.6884 6.998 55.5204 6.83C55.3524 6.662 55.2684 6.45667 55.2684 6.214C55.2684 5.97133 55.3524 5.766 55.5204 5.598C55.6884 5.43 55.8937 5.346 56.1364 5.346C56.3697 5.346 56.5657 5.43 56.7244 5.598C56.8924 5.766 56.9764 5.97133 56.9764 6.214C56.9764 6.45667 56.8924 6.662 56.7244 6.83C56.5657 6.998 56.3697 7.082 56.1364 7.082ZM56.7524 8.328V16H55.4784V8.328H56.7524ZM68.6497 8.188C69.247 8.188 69.779 8.314 70.2457 8.566C70.7124 8.80867 71.081 9.17733 71.3517 9.672C71.6224 10.1667 71.7577 10.7687 71.7577 11.478V16H70.4977V11.66C70.4977 10.8947 70.3064 10.3113 69.9237 9.91C69.5504 9.49933 69.0417 9.294 68.3977 9.294C67.735 9.294 67.2077 9.50867 66.8157 9.938C66.4237 10.358 66.2277 10.9693 66.2277 11.772V16H64.9677V11.66C64.9677 10.8947 64.7764 10.3113 64.3937 9.91C64.0204 9.49933 63.5117 9.294 62.8677 9.294C62.205 9.294 61.6777 9.50867 61.2857 9.938C60.8937 10.358 60.6977 10.9693 60.6977 11.772V16H59.4237V8.328H60.6977V9.434C60.9497 9.03267 61.2857 8.72467 61.7057 8.51C62.135 8.29533 62.6064 8.188 63.1197 8.188C63.7637 8.188 64.333 8.33267 64.8277 8.622C65.3224 8.91133 65.691 9.336 65.9337 9.896C66.1484 9.35467 66.503 8.93467 66.9977 8.636C67.4924 8.33733 68.043 8.188 68.6497 8.188ZM81.3475 11.87C81.3475 12.1127 81.3335 12.3693 81.3055 12.64H75.1735C75.2202 13.396 75.4769 13.9887 75.9435 14.418C76.4195 14.838 76.9935 15.048 77.6655 15.048C78.2162 15.048 78.6735 14.922 79.0375 14.67C79.4109 14.4087 79.6722 14.0633 79.8215 13.634H81.1935C80.9882 14.3713 80.5775 14.9733 79.9615 15.44C79.3455 15.8973 78.5802 16.126 77.6655 16.126C76.9375 16.126 76.2842 15.9627 75.7055 15.636C75.1362 15.3093 74.6882 14.8473 74.3615 14.25C74.0349 13.6433 73.8715 12.9433 73.8715 12.15C73.8715 11.3567 74.0302 10.6613 74.3475 10.064C74.6649 9.46667 75.1082 9.00933 75.6775 8.692C76.2562 8.36533 76.9189 8.202 77.6655 8.202C78.3935 8.202 79.0375 8.36067 79.5975 8.678C80.1575 8.99533 80.5869 9.434 80.8855 9.994C81.1935 10.5447 81.3475 11.17 81.3475 11.87ZM80.0315 11.604C80.0315 11.1187 79.9242 10.7033 79.7095 10.358C79.4949 10.0033 79.2009 9.73733 78.8275 9.56C78.4635 9.37333 78.0575 9.28 77.6095 9.28C76.9655 9.28 76.4149 9.48533 75.9575 9.896C75.5095 10.3067 75.2529 10.876 75.1875 11.604H80.0315Z" fill="black"/>
<defs>
<filter id="filter0_d_0_172" x="252" y="0" width="111" height="35" filterUnits="userSpaceOnUse" color-interpolation-filters="sRGB">
<feFlood flood-opacity="0" result="BackgroundImageFix"/>
<feColorMatrix in="SourceAlpha" type="matrix" values="0 0 0 0 0 0 0 0 0 0 0 0 0 0 0 0 0 0 127 0" result="hardAlpha"/>
<feOffset dy="2"/>
<feGaussianBlur stdDeviation="0.5"/>
<feColorMatrix type="matrix" values="0 0 0 0 0.25098 0 0 0 0 0.282353 0 0 0 0 0.321569 0 0 0 0.05 0"/>
<feBlend mode="normal" in2="BackgroundImageFix" result="effect1_dropShadow_0_172"/>
<feBlend mode="normal" in="SourceGraphic" in2="effect1_dropShadow_0_172" result="shape"/>
</filter>
</defs>
</svg>
